<svg width="31" height="33" viewBox="0 0 31 33" fill="none" xmlns="http://www.w3.org/2000/svg">
<path d="M29.8806 7.21574C29.5399 6.54227 29.0046 5.67638 28.1773 5.00291C27.8366 4.66618 27.3987 4.42566 26.8147 4.32945C26.3767 4.23324 25.9387 4.08892 25.452 4.08892H25.3547C24.7707 4.08892 23.6514 4.18513 23.0188 5.09913C22.6781 5.43586 22.5808 5.96501 22.6781 6.54227C22.7754 6.97522 23.0188 7.31195 23.4567 7.40816C23.4567 7.40816 23.5541 7.40816 23.7974 7.50437C23.7001 7.50437 23.5541 7.7449 23.5541 7.7449C23.3107 8.08163 22.7754 8.61079 21.2181 8.61079H21.1208C20.3421 8.61079 19.6608 8.37026 18.8822 7.40816C18.4442 6.73469 18.1035 5.72449 18.1035 3.99271C18.1035 3.12682 18.0062 2.30904 17.7629 1.77988C17.6655 1.34694 17.3249 1.0102 16.9842 0.769679C16.7409 0.529154 16.4002 0.432945 15.9622 0.336735C15.5242 0 14.8429 0 14.3076 0C13.6263 0 13.2856 0.0962099 13.091 0.432945C13.091 0.432945 13.091 0.529154 12.9936 0.529154H12.5556C12.215 0.529154 11.8743 0.625364 11.5337 0.625364C10.8524 0.721574 10.5117 0.962099 10.0737 1.29883C9.97637 1.39504 9.63571 1.73178 9.48971 2.16472C9.39238 2.50146 9.48971 2.74198 9.58704 2.83819C9.58704 2.83819 9.58704 2.9344 9.68437 2.9344C9.9277 2.69388 10.2684 2.59767 10.8037 2.59767C11.485 2.59767 12.507 2.9344 12.799 3.46356C13.237 4.23324 13.1396 4.8105 13.0423 5.58017C12.799 7.45627 12.0203 8.46647 10.5604 8.65889H9.78171C8.6624 8.65889 7.88375 8.32216 7.54309 7.64869C7.29976 7.40816 7.29976 7.31195 7.29976 7.31195C7.29976 7.31195 7.39709 7.31195 7.54309 7.21574C7.98108 6.97522 8.22441 6.7828 8.32174 6.34985C8.41907 5.91691 8.32174 5.33965 7.98108 4.90671C7.39709 4.32945 6.61844 4.04082 5.64513 4.04082C5.06114 4.04082 4.62315 4.13703 4.28249 4.28134C2.91986 4.61808 1.94654 5.48396 1.16789 7.16764C0.583906 8.27405 0.145916 9.81341 0.0485844 11.3528C-0.0487469 12.8921 -0.0487469 14.2391 0.0485844 15.4417C0.291912 17.414 0.632572 18.6647 1.07056 19.8673C1.50855 21.2143 2.18987 22.4169 2.87119 23.5233C3.11452 23.9563 3.21185 24.1968 3.30918 24.293C3.40651 24.1968 3.55251 24.0525 3.64984 23.8601C3.89317 23.6195 4.67182 22.6574 4.86648 22.3207C5.20714 22.0802 5.5478 21.4548 5.74246 20.9738L5.83979 20.7332L6.08312 20.9738C6.32645 21.2143 6.42378 21.4067 6.42378 21.7434C6.42378 22.0802 6.32645 22.4169 6.18045 23.0904C5.93712 23.7638 5.59646 24.6297 5.15847 25.3032C5.15847 25.3994 5.06114 25.5437 5.06114 25.5437C4.81781 25.9767 4.72048 26.2172 4.81781 26.3134C4.91515 26.3134 5.2558 26.2172 5.59646 25.8805C6.03445 25.688 6.8131 25.0146 7.78642 23.5714C8.56507 22.5612 9.14905 21.4548 9.68437 20.2522L9.78171 20.0117L10.025 20.1079C10.1224 20.1079 10.2684 20.2041 10.2684 20.3484C10.3657 20.5889 10.3657 20.7813 10.3657 21.1181C10.2684 21.8878 9.78171 22.9942 9.48971 23.7638C8.90572 25.1108 7.78642 26.6501 7.00777 27.7566C7.00777 27.7566 6.76444 27.9971 6.76444 28.0933C6.86177 28.1895 7.00777 28.3338 7.20243 28.43L7.54309 28.6706C8.6624 29.5364 9.68437 30.3542 10.9983 30.9796C12.0203 31.5569 14.1129 32.6633 15.4756 32.9519C16.8382 32.6152 18.9308 31.5087 19.9528 30.9796C21.3155 30.2099 22.2888 29.5364 23.4081 28.6706L23.7487 28.43C23.9921 28.3338 24.0894 28.0933 24.1867 28.0933C24.1867 28.0933 24.0894 27.9971 24.0894 27.8528L23.9921 27.7566C23.2134 26.6501 22.0941 25.1108 21.5101 23.7638C21.1695 22.9942 20.7315 21.7915 20.6341 21.1181C20.6341 20.7813 20.6341 20.5408 20.7315 20.3484C20.7315 20.2522 20.8288 20.2522 20.9748 20.1079C21.0721 20.0117 21.2181 20.0117 21.2181 20.0117L21.3155 20.2522C21.8994 21.4548 22.5321 22.465 23.2134 23.5714C24.2354 25.0146 25.014 25.688 25.3547 25.8805C25.6954 26.121 26.036 26.3134 26.1334 26.3134H26.2793C26.3767 26.2172 26.2793 25.9767 26.036 25.5437C26.036 25.4475 25.9387 25.3032 25.9387 25.3032C25.5007 24.5335 25.16 23.7638 24.9167 23.0904C24.6734 22.4169 24.5761 22.0802 24.5761 21.7434C24.5761 21.4067 24.6734 21.07 24.9167 20.9738L25.16 20.8776L25.2574 21.1181C25.5007 21.551 25.9387 22.2245 26.036 22.465C26.2793 22.8017 27.058 23.6676 27.2527 24.0044L27.5933 24.3411C27.6907 24.2449 27.8366 24.0044 28.0313 23.6676V23.5714C28.7126 22.465 29.2479 21.2624 29.8319 19.9155C30.2699 18.5685 30.6106 17.4621 30.8539 15.4898C30.9512 14.2872 31.0972 12.9402 30.8539 11.4009C30.8539 9.86152 30.5619 8.32216 29.8806 7.21574Z" fill="url(#paint0_radial_403_1943)"/>
<defs>
<radialGradient id="paint0_radial_403_1943" cx="0" cy="0" r="1" gradientUnits="userSpaceOnUse" gradientTransform="translate(0.850227 5.94434) scale(34.2233 33.8289)">
<stop stop-color="#20C4F4"/>
<stop offset="0.304" stop-color="#09B4F0"/>
<stop offset="0.5" stop-color="#00AEEF"/>
<stop offset="0.8" stop-color="#0092C8"/>
<stop offset="1" stop-color="#006E98"/>
</radialGradient>
</defs>
</svg>
