<svg width="20" height="15" viewBox="0 0 20 15" fill="none" xmlns="http://www.w3.org/2000/svg">
<path d="M19.8125 12.6906C19.8235 12.4718 19.9235 11.8609 19.9203 11.7422C19.9094 10.2203 18.9438 5.20466 18.7891 3.98278L18.7797 3.90778C18.7266 3.42809 18.7063 2.85778 18.5297 2.40466C18.3516 1.94841 17.775 1.78903 17.3594 1.62809C15.6391 0.971845 13.6969 0.418719 11.8719 0.996844C11.1594 1.22184 10.5172 1.62341 10.0016 2.25622C9.48752 1.62341 8.84377 1.22184 8.13283 0.996844C6.30783 0.418719 4.36565 0.971845 2.64533 1.62809C2.22971 1.78747 1.65002 1.94684 1.47346 2.40466C1.2969 2.85778 1.27658 3.42653 1.22346 3.90778L1.21408 3.98278C1.0594 5.20466 0.0953343 10.2203 0.0828343 11.7422C0.0797093 11.8625 0.181272 12.4718 0.192209 12.6906C0.207834 13.0062 0.170334 13.3234 0.185959 13.6375C0.154709 13.7468 0.182834 13.85 0.250022 13.9312C0.293772 14.0156 0.360959 14.0672 0.434397 14.0937C0.601584 14.2781 0.904709 14.1562 1.10315 14.0937C2.88127 13.5187 4.83596 13.5406 6.67033 13.7843C6.99533 13.8265 7.31877 13.8797 7.64065 13.9422C7.97502 14.0078 8.29221 14.1265 8.61252 14.2406C8.87659 14.3343 9.15315 14.4125 9.43127 14.4656C9.63127 14.5109 9.82658 14.5297 9.91565 14.5312C9.9469 14.5312 9.97502 14.5281 10.0047 14.5265C10.0344 14.5265 10.0641 14.5312 10.0938 14.5312C10.1828 14.5312 10.3781 14.5125 10.5781 14.4656C10.8563 14.4125 11.1328 14.3343 11.3969 14.2406C11.7172 14.1265 12.036 14.0078 12.3703 13.9422C12.6922 13.8797 13.0156 13.8265 13.3406 13.7843C15.1735 13.5406 17.1297 13.5187 18.9078 14.0937C19.1047 14.1578 19.4078 14.2781 19.575 14.0937C19.65 14.0672 19.7156 14.0156 19.7594 13.9312C19.8266 13.85 19.8547 13.7468 19.8235 13.6375C19.8344 13.3218 19.7969 13.0062 19.8125 12.6906ZM5.68127 10.6484C4.96408 10.625 4.24533 10.6609 3.53596 10.7609C2.92658 10.8468 2.32502 10.9828 1.73908 11.1656C1.5969 11.2093 1.43752 11.2453 1.30315 11.3125C1.21721 11.3562 1.1469 11.4062 1.07033 11.3109C0.964084 11.1828 1.0344 10.95 1.05158 10.8031C1.08596 10.5078 1.12502 10.214 1.17033 9.92028C1.36721 8.61247 1.63127 7.31716 1.81096 6.00622C1.88908 5.42653 1.95315 4.84216 2.02815 4.26247C2.06565 3.96403 2.10783 3.66559 2.15627 3.36872C2.21565 3.00466 2.22815 2.74841 2.56877 2.52809C3.14846 2.15309 3.84377 1.98747 4.50783 1.82653C5.22346 1.65309 5.93752 1.50622 6.67815 1.53434C7.1969 1.55466 7.70159 1.69216 8.1594 1.93434C8.38127 2.05153 8.59377 2.18903 8.79533 2.34059C8.99534 2.48903 9.23909 2.64841 9.39846 2.83903C9.54065 3.00778 9.58596 3.16091 9.60002 3.33591C9.50159 5.57497 9.51721 11.1265 9.5344 11.5203C9.53596 11.5531 9.53909 11.5859 9.54065 11.6187C9.53284 11.6609 9.5094 11.6937 9.44065 11.6937C9.35783 11.6953 9.26721 11.6406 9.19533 11.6031C9.0469 11.525 8.8969 11.45 8.7469 11.3797C7.77658 10.9218 6.75471 10.6828 5.68127 10.6484ZM18.9297 11.3093C18.8516 11.4047 18.7828 11.3547 18.6969 11.3109C18.5641 11.2437 18.4047 11.2078 18.261 11.164C17.675 10.9812 17.0735 10.8468 16.4641 10.7593C15.7547 10.6593 15.0344 10.625 14.3172 10.6468C13.2453 10.6812 12.2235 10.9203 11.2516 11.3781C11.1016 11.45 10.9516 11.525 10.8031 11.6015C10.7313 11.639 10.6406 11.6922 10.5563 11.6922C10.4875 11.6922 10.4641 11.6593 10.4563 11.6172C10.4578 11.5843 10.4625 11.5515 10.4625 11.5187C10.4797 11.125 10.4969 5.57341 10.3969 3.33434C10.411 3.15934 10.4563 3.00622 10.5969 2.83747C10.7594 2.64684 11.0016 2.48591 11.2016 2.33903C11.4031 2.18903 11.6141 2.04997 11.8375 1.93278C12.2969 1.69059 12.8 1.55309 13.3188 1.53278C14.0594 1.50309 14.7735 1.65153 15.4891 1.82497C16.1531 1.98591 16.8485 2.14997 17.4297 2.52653C17.7703 2.74684 17.7828 3.00309 17.8422 3.36716C17.8906 3.66403 17.9328 3.96247 17.9703 4.26091C18.0438 4.84216 18.1078 5.42497 18.1875 6.00466C18.3672 7.31403 18.6328 8.61091 18.8281 9.91872C18.8703 10.2125 18.9125 10.5062 18.9469 10.8015C18.9656 10.9484 19.036 11.1812 18.9297 11.3093Z" fill="#8FA7AC"/>
</svg>
