<svg width="16" height="8" viewBox="0 0 16 8" fill="none" xmlns="http://www.w3.org/2000/svg">
<path d="M6.29216 1.28288C4.81247 0.589127 2.81872 0.551627 1.32966 1.26413C0.935909 1.45319 1.27966 2.0235 1.67028 1.84694C2.93747 1.26881 4.67497 1.35631 5.90466 1.94538C6.34841 2.15631 6.73747 1.49225 6.29216 1.28288ZM6.24528 3.111C4.67028 2.42038 2.64528 2.15944 1.05622 2.97819C0.710909 3.15631 1.01403 3.64381 1.35622 3.49069C2.81403 2.83913 4.56091 3.22194 5.9781 3.74694C6.34528 3.88444 6.60622 3.26881 6.24528 3.111ZM6.16247 4.93444C5.99528 4.79382 5.76247 4.72819 5.56091 4.65475C4.09841 4.12038 2.15622 4.0985 0.751534 4.81725C0.442159 4.97506 0.703097 5.42506 1.00778 5.33756C1.77341 5.12038 2.49372 5.00006 3.28903 4.99225C3.91247 4.986 4.4781 5.05163 5.07341 5.22975C5.2531 5.28288 5.42497 5.30319 5.59685 5.38444C5.72028 5.44225 5.87341 5.51569 6.00935 5.53288C6.30622 5.56881 6.36716 5.13288 6.19997 4.96725L6.16247 4.93444ZM6.00778 6.69538C4.31716 5.8985 2.42028 6.04538 0.709347 6.6485C0.356222 6.7735 0.524972 7.31725 0.884347 7.20475C1.68903 6.95163 2.35935 6.76256 3.21403 6.75163C4.03591 6.74225 4.9281 7.011 5.68122 7.30631C6.08591 7.46725 6.41872 6.88913 6.00778 6.69538ZM10.0953 1.94381C11.325 1.35475 13.0625 1.26881 14.3297 1.84538C14.7187 2.0235 15.064 1.45163 14.6703 1.26256C13.1828 0.550064 11.189 0.587564 9.70935 1.28131C9.26247 1.49225 9.64997 2.15631 10.0953 1.94381ZM10.0234 3.74694C11.4406 3.22194 13.1875 2.83913 14.6453 3.49069C14.9875 3.64381 15.2906 3.15631 14.9453 2.97819C13.3547 2.15944 11.3297 2.42038 9.75622 3.111C9.39528 3.26881 9.65466 3.88444 10.0234 3.74694ZM9.9906 5.53444C10.1281 5.51725 10.2781 5.44381 10.4015 5.386C10.575 5.30475 10.7468 5.28444 10.9265 5.23131C11.5218 5.05475 12.0875 4.98913 12.7109 4.99381C13.5062 5.00006 14.2281 5.12038 14.9937 5.33913C15.2968 5.42663 15.5578 4.97506 15.25 4.81881C13.8453 4.10006 11.9015 4.12194 10.4406 4.65631C10.239 4.72975 10.0062 4.79381 9.83747 4.936L9.79997 4.97038C9.63122 5.13288 9.69528 5.57038 9.9906 5.53444ZM15.2922 6.6485C13.5812 6.04538 11.6843 5.8985 9.99372 6.69538C9.58278 6.88913 9.9156 7.46725 10.3218 7.30631C11.0734 7.011 11.964 6.74225 12.7875 6.75163C13.6406 6.76256 14.3125 6.95163 15.1156 7.20475C15.4765 7.31881 15.6453 6.7735 15.2922 6.6485Z" fill="#8FA7AC"/>
</svg>
