<svg width="14" height="14" viewBox="0 0 14 14" fill="none" xmlns="http://www.w3.org/2000/svg">
<path d="M6.99998 0.333313C10.682 0.333313 13.6666 3.31865 13.6666 6.99998C13.6666 10.6813 10.682 13.6666 6.99998 13.6666C3.31798 13.6666 0.333313 10.6813 0.333313 6.99998C0.333313 3.31865 3.31798 0.333313 6.99998 0.333313ZM6.99998 1.44465C3.93665 1.44465 1.44465 3.93665 1.44465 6.99998C1.44465 10.0633 3.93665 12.5553 6.99998 12.5553C10.0633 12.5553 12.5553 10.0633 12.5553 6.99998C12.5553 3.93665 10.0633 1.44465 6.99998 1.44465ZM6.49998 2.99998C6.6208 2.99998 6.73754 3.04374 6.8286 3.12316C6.91966 3.20257 6.97888 3.31228 6.99531 3.43198L6.99998 3.49998V6.99998H9.16665C9.29333 7.00002 9.41527 7.04814 9.50784 7.13463C9.60041 7.22111 9.6567 7.33951 9.66533 7.4659C9.67396 7.59229 9.6343 7.71724 9.55436 7.81551C9.47441 7.91378 9.36015 7.97804 9.23465 7.99531L9.16665 7.99998H6.49998C6.37915 7.99997 6.26242 7.95622 6.17136 7.8768C6.0803 7.79739 6.02108 7.68768 6.00465 7.56798L5.99998 7.49998V3.49998C5.99998 3.36737 6.05266 3.24019 6.14643 3.14643C6.24019 3.05266 6.36737 2.99998 6.49998 2.99998Z" fill="#BAC8CC"/>
</svg>
