<svg width="28" height="29" viewBox="0 0 28 29" fill="none" xmlns="http://www.w3.org/2000/svg">
<g clip-path="url(#clip0_376_902)">
<path d="M27.4546 14.4043C27.4546 6.81042 21.3494 0.654343 13.8182 0.654343C6.28709 0.654343 0.181885 6.81042 0.181885 14.4043C0.181885 21.2674 5.16851 26.9558 11.6876 27.9873V18.379H8.22521V14.4043H11.6876V11.375C11.6876 7.92895 13.7234 6.02544 16.8382 6.02544C18.3302 6.02544 19.8907 6.29399 19.8907 6.29399V9.67778H18.1712C16.4772 9.67778 15.9489 10.7377 15.9489 11.8251V14.4043H19.7309L19.1263 18.379H15.9489V27.9873C22.468 26.9558 27.4546 21.2674 27.4546 14.4043Z" fill="#1877F2"/>
<path d="M19.1262 18.3789L19.7308 14.4043H15.9488V11.825C15.9488 10.7376 16.4771 9.67774 18.1711 9.67774H19.8906V6.29395C19.8906 6.29395 18.33 6.02539 16.8381 6.02539C13.7233 6.02539 11.6875 7.92891 11.6875 11.375V14.4043H8.2251V18.3789H11.6875V27.9873C12.3817 28.0971 13.0933 28.1543 13.8181 28.1543C14.543 28.1543 15.2546 28.0971 15.9488 27.9873V18.3789H19.1262Z" fill="white"/>
</g>
<defs>
<clipPath id="clip0_376_902">
<rect width="27.2727" height="27.5" fill="white" transform="translate(0.181885 0.654541)"/>
</clipPath>
</defs>
</svg>
