<svg width="21" height="24" viewBox="0 0 21 24" fill="none" xmlns="http://www.w3.org/2000/svg">
<path d="M9.00001 4.5C9.00014 5.46976 8.687 6.41362 8.10722 7.19098C7.52744 7.96835 6.71205 8.53762 5.78251 8.814C6.04951 9.1485 6.40651 9.5385 6.86251 9.93C7.95151 10.863 9.61351 11.808 12 11.9745C12.0075 10.8478 12.4374 9.76484 13.2048 8.93977C13.9722 8.11471 15.0212 7.60754 16.1444 7.51853C17.2676 7.42951 18.3834 7.76512 19.2712 8.45901C20.1589 9.15291 20.754 10.1546 20.9389 11.2661C21.1238 12.3776 20.885 13.518 20.2697 14.4619C19.6543 15.4058 18.7073 16.0845 17.6157 16.3639C16.5241 16.6433 15.3675 16.503 14.3743 15.9708C13.3812 15.4386 12.6239 14.5531 12.252 13.4895C9.31201 13.3725 7.23901 12.228 5.88751 11.07C5.66636 10.8804 5.45365 10.6813 5.25001 10.473V15.063C6.36256 15.2511 7.36386 15.8502 8.05549 16.7417C8.74712 17.6332 9.0786 18.752 8.98425 19.8764C8.88989 21.0008 8.37658 22.0487 7.54604 22.8124C6.7155 23.5762 5.62834 24.0001 4.50001 24.0001C3.37168 24.0001 2.28452 23.5762 1.45398 22.8124C0.623441 22.0487 0.110129 21.0008 0.0157715 19.8764C-0.0785865 18.752 0.252895 17.6332 0.944525 16.7417C1.63616 15.8502 2.63746 15.2511 3.75001 15.063V8.937C2.90405 8.79401 2.1166 8.41216 1.48047 7.83647C0.844341 7.26077 0.386042 6.51522 0.159589 5.68769C-0.0668642 4.86016 -0.0520311 3.98514 0.20234 3.16576C0.45671 2.34638 0.940016 1.61679 1.59529 1.06299C2.25057 0.509187 3.05051 0.154249 3.90083 0.0400111C4.75114 -0.0742271 5.6164 0.0569956 6.39461 0.418213C7.17281 0.779431 7.83154 1.35559 8.29316 2.07878C8.75477 2.80197 9.00002 3.64205 9.00001 4.5ZM4.51351 7.5C5.30916 7.49642 6.0708 7.17692 6.63087 6.61178C7.19095 6.04664 7.50359 5.28215 7.50001 4.4865C7.49643 3.69085 7.17692 2.92921 6.61178 2.36914C6.04664 1.80906 5.28216 1.49642 4.48651 1.5C4.09254 1.50177 3.70278 1.58113 3.33949 1.73353C2.97619 1.88593 2.64646 2.1084 2.36914 2.38823C1.80906 2.95337 1.49643 3.71785 1.50001 4.5135C1.50359 5.30915 1.82309 6.07079 2.38823 6.63087C2.95337 7.19094 3.71786 7.50358 4.51351 7.5ZM19.5 12C19.5 11.2044 19.1839 10.4413 18.6213 9.87868C18.0587 9.31607 17.2957 9 16.5 9C15.7044 9 14.9413 9.31607 14.3787 9.87868C13.8161 10.4413 13.5 11.2044 13.5 12C13.5 12.7957 13.8161 13.5587 14.3787 14.1213C14.9413 14.6839 15.7044 15 16.5 15C17.2957 15 18.0587 14.6839 18.6213 14.1213C19.1839 13.5587 19.5 12.7957 19.5 12ZM4.50001 22.5C5.29566 22.5 6.05872 22.1839 6.62133 21.6213C7.18394 21.0587 7.50001 20.2957 7.50001 19.5C7.50001 18.7044 7.18394 17.9413 6.62133 17.3787C6.05872 16.8161 5.29566 16.5 4.50001 16.5C3.70436 16.5 2.9413 16.8161 2.37869 17.3787C1.81608 17.9413 1.50001 18.7044 1.50001 19.5C1.50001 20.2957 1.81608 21.0587 2.37869 21.6213C2.9413 22.1839 3.70436 22.5 4.50001 22.5Z" fill="#C6C6C6"/>
</svg>
