<svg width="19" height="18" viewBox="0 0 19 18" fill="none" xmlns="http://www.w3.org/2000/svg">
<path d="M10.7439 0.468006C10.6222 0.355913 10.4624 0.296368 10.2983 0.302002C10.1342 0.307636 9.97875 0.378005 9.86486 0.498184C9.75097 0.618362 9.68764 0.778896 9.68829 0.945736C9.68894 1.11257 9.75352 1.27259 9.86834 1.39185L16.8345 8.20095H1.04758C0.880127 8.20095 0.719532 8.26855 0.601126 8.38886C0.482719 8.50918 0.416201 8.67236 0.416201 8.84252C0.416201 9.01267 0.482719 9.17585 0.601126 9.29617C0.719532 9.41648 0.880127 9.48408 1.04758 9.48408H16.8337L9.86834 16.2923C9.75352 16.4116 9.68894 16.5716 9.68829 16.7384C9.68764 16.9053 9.75097 17.0658 9.86486 17.186C9.97875 17.3062 10.1342 17.3765 10.2983 17.3822C10.4624 17.3878 10.6222 17.3283 10.7439 17.2162L18.6807 9.45841C18.7623 9.37861 18.8272 9.28288 18.8716 9.17698C18.9159 9.07108 18.9388 8.95718 18.9388 8.84209C18.9388 8.727 18.9159 8.61309 18.8716 8.50719C18.8272 8.40129 18.7623 8.30557 18.6807 8.22576L10.7439 0.46715V0.468006Z" fill="#B1B8CF"/>
</svg>
