<svg width="52" height="22" viewBox="0 0 52 22" fill="none" xmlns="http://www.w3.org/2000/svg">
<path d="M4.52528 5.29374H7.58857V10.2437C6.54426 10.45 5.77844 10.5875 4.87338 10.5875C1.46199 10.5875 0.278442 8.66249 0.278442 5.49999C0.278442 2.13124 1.94933 0.206238 5.22148 0.206238C5.6392 0.206238 6.47465 0.206238 7.44933 0.412488V3.57499H6.75313L6.40502 2.40624C5.9873 1.23749 5.56958 0.618738 4.80376 0.618738C3.55059 0.618738 2.85439 2.33749 2.85439 5.43124C2.85439 8.59374 3.13287 10.1062 4.80376 10.1062C5.01262 10.1062 5.2911 10.1062 5.56958 9.96874V6.39374L4.5949 5.70624L4.52528 5.29374ZM7.58857 18.7C7.58857 20.6937 6.19616 21.8625 3.75945 21.8625C3.06325 21.8625 2.08857 21.725 1.18351 21.5875V17.6687H1.87971L2.15819 18.5625C2.85439 20.6937 3.27211 21.3812 4.17718 21.3812C5.08224 21.3812 5.70882 20.625 5.70882 19.5937C5.70882 18.7687 5.2911 18.15 4.45566 17.7375L2.99363 16.9125C1.87971 16.2937 1.25313 15.4 1.25313 14.2312C1.25313 12.5125 2.71515 11.4812 5.08224 11.4812C5.6392 11.4812 6.26578 11.55 7.24047 11.6875V14.85H6.54426L6.12654 13.6125C5.70882 12.3062 5.2911 11.825 4.52528 11.825C3.68983 11.825 3.13287 12.375 3.13287 13.2C3.13287 13.9562 3.55059 14.4375 4.31642 14.9187L5.84806 15.7437C6.96199 16.4312 7.58857 17.3937 7.58857 18.7ZM14.1329 20.9687L14.4114 21.3812V21.5875H12.1139L11.9746 20.7625C11.6962 21.3812 11.1392 21.7937 10.3038 21.7937C9.12021 21.7937 8.35439 21.0375 8.35439 19.8687C8.35439 18.7 9.05059 17.9437 11.0696 17.1187L11.905 16.775V15.675C11.905 14.7125 11.6962 14.3 11.1392 14.3C10.7215 14.3 10.443 14.575 10.0253 15.6062L9.53794 16.8437H8.84173V14.4375C9.67718 14.1625 10.5822 14.025 11.3481 14.025C13.0189 14.025 13.924 14.85 13.924 16.2937V20.9687H14.1329ZM15.0379 6.66874C15.0379 9.14374 13.7152 10.5875 11.9746 10.5875C10.2341 10.5875 8.91135 9.14374 8.91135 6.66874C8.91135 4.19374 10.1645 2.74999 11.905 2.74999C13.6455 2.74999 15.0379 4.19374 15.0379 6.66874ZM12.0443 19.8V17.2562L11.7658 17.3937C10.9303 17.7375 10.5126 18.5625 10.5126 19.6625C10.5126 20.4875 10.7215 21.0375 11.2088 21.0375C11.7658 20.9687 12.0443 20.5562 12.0443 19.8ZM12.8101 6.66874C12.8101 3.84999 12.5316 3.09374 11.905 3.09374C11.2784 3.09374 11 3.84999 11 6.66874C11 9.48749 11.2784 10.2437 11.905 10.2437C12.5316 10.2437 12.8101 9.48749 12.8101 6.66874ZM20.2595 19.8L20.5379 19.9375C20.0506 21.3125 19.424 21.7937 18.2405 21.7937C16.2911 21.7937 15.2468 20.35 15.2468 17.875C15.2468 15.4 16.5 13.9562 18.5189 13.9562C19.0759 13.9562 19.7721 14.025 20.3987 14.3V16.775H19.7025L19.4936 15.8812C19.1455 14.6437 18.9367 14.3 18.5189 14.3C17.8924 14.3 17.405 15.0562 17.405 17.9437C17.405 20.2812 17.7531 21.1062 18.6582 21.1062C19.3544 21.175 19.9114 20.8312 20.2595 19.8ZM18.6582 10.3812H15.943V10.175L16.2215 9.69374V1.51249L15.943 1.03124V0.893738L18.3101 0.687488V9.76249L18.5886 10.2437V10.3812H18.6582ZM22.2784 10.5875C20.6772 10.5875 19.6329 9.14374 19.6329 6.59999C19.7025 4.12499 20.6772 2.74999 22.2784 2.74999C23.1139 2.74999 23.5316 3.09374 23.7405 3.71249V1.51249L23.462 1.03124V0.893738L25.8291 0.687488V9.76249L26.1076 10.2437V10.45H24.0189L23.8797 9.34999C23.6012 10.2437 23.1835 10.5875 22.2784 10.5875ZM27.5 20.9687L27.7784 21.3812V21.5875H25.0633V21.3812L25.3417 20.9687V15.675C25.3417 15.0562 25.1329 14.6437 24.7151 14.6437C24.1582 14.6437 23.7405 15.125 23.7405 16.0187V20.9687L24.0189 21.3812V21.5875H21.3038V21.3812L21.5822 20.9687V12.7875L21.3038 12.3062V12.1L23.6708 11.8937V14.9187C23.9493 14.3 24.5063 13.9562 25.4114 13.9562C26.6645 13.9562 27.3607 14.7125 27.3607 16.225C27.5 16.225 27.5 20.9687 27.5 20.9687ZM21.8607 6.59999C21.8607 9.28124 22.1392 10.0375 22.7658 10.0375C23.6012 10.0375 23.7405 8.86874 23.7405 6.53124C23.7405 4.26249 23.6012 3.16249 22.7658 3.16249C22.1392 3.23124 21.8607 4.05624 21.8607 6.59999ZM36.8291 9.76249L37.1076 10.2437V10.45H34.3924V10.2437L34.6708 9.76249V4.33124C34.7405 3.78124 34.5316 3.43749 34.1139 3.43749C33.6265 3.43749 33.1392 3.91874 33.1392 4.74374V9.69374L33.4177 10.175V10.3812H30.7721V10.175L31.0506 9.69374V4.33124C31.0506 3.78124 30.8417 3.50624 30.424 3.50624C29.9367 3.50624 29.4493 3.98749 29.4493 4.81249V9.76249L29.7278 10.2437V10.45H27.0126V10.2437L27.2911 9.76249V3.78124L27.2215 3.43749V3.23124L29.3797 2.95624H29.5886L29.6582 3.78124C29.9367 3.16249 30.4936 2.81874 31.3987 2.81874C32.3038 2.81874 32.9303 3.23124 33.1392 4.05624C33.3481 3.29999 34.0443 2.81874 34.9493 2.81874C36.1329 2.81874 36.8987 3.57499 36.8987 5.08749V9.76249H36.8291ZM34.0443 19.525C34.0443 20.8312 33.2088 21.8625 31.1898 21.8625C30.7025 21.8625 29.9367 21.7937 28.8924 21.5875V18.8375H29.5189L29.7278 19.4562C30.2152 20.9687 30.7025 21.5187 31.3987 21.5187C32.0949 21.5187 32.5126 21.0375 32.5126 20.2812C32.5126 19.6625 32.1645 19.25 31.4683 18.8375L30.2152 18.15C29.3797 17.7375 28.962 17.05 28.962 16.1562C28.962 14.85 30.0063 14.025 31.7468 14.025C32.2341 14.025 32.9303 14.0937 33.6265 14.2312V16.3625H33L32.6519 15.6062C32.3038 14.6437 31.9557 14.3687 31.3987 14.3687C30.7721 14.3687 30.424 14.7125 30.424 15.3312C30.424 15.8125 30.7025 16.1562 31.4683 16.5687L32.7215 17.2562C33.6265 17.7375 34.0443 18.425 34.0443 19.525ZM43.6519 9.76249L43.9303 10.2437V10.45H41.6329L41.4936 9.62499C41.2151 10.2437 40.6582 10.6562 39.8227 10.6562C38.6392 10.6562 37.8734 9.89999 37.8734 8.73124C37.8734 7.56249 38.5696 6.80624 40.5886 5.98124L41.5633 5.49999V4.46874C41.5633 3.50624 41.3544 3.09374 40.7974 3.09374C40.3101 3.09374 40.1012 3.36874 39.6835 4.39999L39.1962 5.63749H38.5V3.16249C39.405 2.88749 40.3101 2.74999 41.0759 2.74999C42.7468 2.74999 43.6519 3.57499 43.6519 5.01874V9.76249ZM41.5633 8.52499V5.98124L41.2848 6.11874C40.4493 6.46249 40.0316 7.28749 40.0316 8.38749C40.0316 9.21249 40.2405 9.76249 40.7278 9.76249C41.2848 9.76249 41.5633 9.28124 41.5633 8.52499ZM51.3101 10.175V10.3812H48.5949V10.175L48.8734 9.69374V4.46874C48.8734 3.84999 48.6645 3.43749 48.2468 3.43749C47.7595 3.43749 47.3417 3.91874 47.3417 4.81249V9.76249L47.6202 10.2437V10.45H44.905V10.2437L45.1835 9.76249V3.78124L44.9746 3.43749V3.23124L47.1329 2.95624H47.3417V3.78124C47.6202 3.16249 48.1772 2.81874 49.0822 2.81874C50.3354 2.81874 51.0316 3.57499 51.0316 5.08749V9.83124L51.3101 10.175Z" fill="#7699C6"/>
</svg>
