<svg width="31" height="23" viewBox="0 0 31 23" fill="none" xmlns="http://www.w3.org/2000/svg">
<g clip-path="url(#clip0_376_894)">
<path d="M7.42153 22.7461V11.4714L3.89216 8.27248L0.727295 6.49731V20.7564C0.727295 21.8573 1.62761 22.7461 2.73561 22.7461H7.42153Z" fill="#4285F4"/>
<path d="M23.4875 22.746H28.1735C29.2848 22.746 30.1818 21.8539 30.1818 20.7563V6.49731L26.5971 8.53055L23.4875 11.4713V22.746Z" fill="#34A853"/>
<path d="M7.42141 11.4716L6.94116 7.06622L7.42141 2.84985L15.4544 8.81881L23.4875 2.84985L24.0247 6.83858L23.4875 11.4716L15.4544 17.4405L7.42141 11.4716Z" fill="#EA4335"/>
<path d="M23.4875 2.84973V11.4715L30.1818 6.4974V3.84452C30.1818 1.38405 27.3468 -0.0185897 25.3621 1.45701L23.4875 2.84973Z" fill="#FBBC04"/>
<path d="M0.727295 6.49721L3.8061 8.78498L7.42153 11.4713V2.84954L5.54702 1.45681C3.55884 -0.0188955 0.727295 1.38386 0.727295 3.84421V6.49709V6.49721Z" fill="#C5221F"/>
</g>
<defs>
<clipPath id="clip0_376_894">
<rect width="29.4545" height="22" fill="white" transform="translate(0.727295 0.854248)"/>
</clipPath>
</defs>
</svg>
