<svg width="35" height="22" viewBox="0 0 35 22" fill="none" xmlns="http://www.w3.org/2000/svg">
<g clip-path="url(#clip0_557_2152)">
<path d="M3.81623 10.4308H1.63303V7.86911H0.137451V14.1309H1.63303V11.7534H3.81623V14.1309H5.329V7.86911H3.81623V10.4308Z" fill="#0171BB"/>
<path d="M13.8039 7.86911H12.3083V14.1309H16.1418V12.8082H13.8039V7.86911Z" fill="#0171BB"/>
<path d="M16.8467 14.1309H18.3594V7.86911H16.8467V14.1309Z" fill="#0171BB"/>
<path d="M20.7318 9.19179H23.551V7.86911H19.219V14.1309H20.7318V11.7534H23.0697V10.4308H20.7318V9.19179Z" fill="#0171BB"/>
<path d="M8.13103 11.7534L8.81865 9.6271L9.50628 11.7534H8.13103ZM7.9935 7.86911L5.8103 14.1309H7.35745L7.71846 12.9924H9.90166L10.2627 14.1309H11.8098L9.6438 7.86911H7.9935Z" fill="#0171BB"/>
<path d="M25.4077 11.7534L26.0953 9.6271L26.7829 11.7534H25.4077ZM34.6906 7.86911H32.9887L31.7682 9.76104L30.5476 7.86911H28.8458L30.943 11L29.0177 13.8965L26.9204 7.86911H25.2701L23.1041 14.1309H24.6513L25.0123 12.9924H27.1783L27.5393 14.1309H30.5476L31.7682 12.239L32.9887 14.1309H34.6906L32.5933 11L34.6906 7.86911Z" fill="#0171BB"/>
<path d="M19.2139 6.63014L12.7847 0H-0.00512695L7.0602 6.63014H19.2139Z" fill="#0171BB"/>
<path d="M7.0602 15.3699L-0.00512695 22H12.7847L19.2139 15.3699H7.0602Z" fill="#0171BB"/>
<path d="M27.9295 15.3699H20.7438L18.234 17.965L22.205 22H34.9948L27.9295 15.3699Z" fill="#0171BB"/>
<path d="M22.205 0L18.234 4.03501L20.7438 6.63014H27.9295L34.9948 0H22.205Z" fill="#0171BB"/>
</g>
<defs>
<clipPath id="clip0_557_2152">
<rect width="35" height="22" fill="white"/>
</clipPath>
</defs>
</svg>
