<svg width="30" height="26" viewBox="0 0 30 26" fill="none" xmlns="http://www.w3.org/2000/svg">
<path d="M15.5737 1.07562C15.4074 0.945922 15.2025 0.875488 14.9916 0.875488C14.7806 0.875488 14.5757 0.945922 14.4094 1.07562L0.9375 11.5803L2.10281 13.0541L3.75 11.7697V23.375C3.75099 23.872 3.94885 24.3483 4.30027 24.6997C4.65169 25.0511 5.12802 25.249 5.625 25.25H24.375C24.872 25.249 25.3483 25.0511 25.6997 24.6997C26.0511 24.3483 26.249 23.872 26.25 23.375V11.7781L27.8972 13.0625L29.0625 11.5887L15.5737 1.07562ZM16.875 23.375H13.125V15.875H16.875V23.375ZM18.75 23.375V15.875C18.7495 15.3779 18.5518 14.9012 18.2003 14.5497C17.8488 14.1982 17.3721 14.0005 16.875 14H13.125C12.6279 14.0005 12.1512 14.1982 11.7997 14.5497C11.4482 14.9012 11.2505 15.3779 11.25 15.875V23.375H5.625V10.3081L15 3.00499L24.375 10.3175V23.375H18.75Z" fill="#25CAAC"/>
</svg>
