<svg width="30" height="30" viewBox="0 0 30 30" fill="none" xmlns="http://www.w3.org/2000/svg">
<rect width="30" height="30" fill="#E5E5E5"/>
<g clip-path="url(#clip0_376_644)">
<rect x="-56" y="-966" width="428" height="1238" rx="60" fill="white"/>
</g>
<rect x="-17.5" y="-22.5" width="352" height="79" rx="19.5" fill="white" stroke="#F3F3F3"/>
<circle cx="15" cy="15" r="15" fill="#B4DDC0"/>
<path d="M10.7222 8.45557H19.2222V9.18751H10.7222V8.45557Z" fill="white"/>
<path d="M19.6944 9.77779H10.6561C10.5356 9.77608 10.4167 9.74999 10.3065 9.70107C10.1964 9.65216 10.0973 9.58144 10.0152 9.49318C9.93312 9.40493 9.86977 9.30097 9.82896 9.18756C9.78815 9.07416 9.77074 8.95366 9.77777 8.83335C9.77718 8.59391 9.86756 8.36319 10.0306 8.18785C10.1937 8.01252 10.4172 7.90566 10.6561 7.8889H19.6944C19.8197 7.8889 19.9398 7.83915 20.0283 7.75059C20.1169 7.66203 20.1667 7.54192 20.1667 7.41668C20.1667 7.29144 20.1169 7.17133 20.0283 7.08277C19.9398 6.99421 19.8197 6.94446 19.6944 6.94446H10.6561C10.1667 6.9616 9.70305 7.16815 9.36299 7.52054C9.02293 7.87294 8.83302 8.34363 8.83332 8.83335C8.82875 8.91041 8.82875 8.98767 8.83332 9.06474C8.82877 9.10238 8.82877 9.14043 8.83332 9.17807V20.1667C8.83302 20.6564 9.02293 21.1271 9.36299 21.4795C9.70305 21.8319 10.1667 22.0384 10.6561 22.0556H19.6944C19.8197 22.0556 19.9398 22.0058 20.0283 21.9173C20.1169 21.8287 20.1667 21.7086 20.1667 21.5833V10.2831C20.1669 10.1546 20.1183 10.0308 20.0305 9.93698C19.9428 9.84312 19.8226 9.7862 19.6944 9.77779V9.77779ZM19.2222 21.1111H10.6561C10.4172 21.0944 10.1937 20.9875 10.0306 20.8122C9.86756 20.6368 9.77718 20.4061 9.77777 20.1667V10.5097C10.0463 10.6579 10.3496 10.7312 10.6561 10.7222H19.2222V21.1111Z" fill="white"/>
<defs>
<clipPath id="clip0_376_644">
<rect x="-56" y="-966" width="428" height="1238" rx="60" fill="white"/>
</clipPath>
</defs>
</svg>
