<svg width="169" height="13" viewBox="0 0 169 13" fill="none" xmlns="http://www.w3.org/2000/svg">
<path fill-rule="evenodd" clip-rule="evenodd" d="M149.074 2.24826C126.822 0.937794 83.684 0.349422 61.0852 1.04477C39.6096 1.71338 14.3364 3.95989 3.4514 3.95989C0.589774 3.95989 0.402537 3.98663 0.830444 4.41454C1.4723 5.0564 6.71419 5.19012 15.9678 4.78896C23.1352 4.49477 23.2957 4.49478 24.4189 5.02966C25.5422 5.56454 25.7294 5.56454 32.4689 5.2971C45.6271 4.76222 54.8003 4.17385 58.5445 4.20059C61.941 4.22733 62.5026 4.70873 56.1643 5.00292C41.455 5.72501 41.2945 5.75175 42.2573 6.6878C42.6852 7.1157 43.2468 7.16919 48.2212 7.08896C53.6771 7.00873 53.4899 6.87501 54.1317 7.49012C54.5596 7.89128 55.1212 8.10524 55.7096 8.13198C60.2294 8.18547 72.9596 8.47966 72.9596 8.47966C69.4829 8.58664 65.2305 8.93431 65.0166 9.14826C64.0538 10.1111 65.3108 10.1913 81.3038 10.432C99.3026 10.6727 112.942 11.582 114.654 12.2238C115.082 12.3843 115.322 12.0634 115.028 11.689C114.012 10.4587 96.9759 10.0576 89.9422 9.68315C88.498 9.60292 87.5887 9.12152 91.4398 8.9878C100.586 8.69361 97.2968 7.75757 96.3073 7.67733C94.9701 7.57036 91.8945 7.5971 84.2991 7.46338C80.6352 7.40989 82.0794 6.95524 84.4596 6.92849C106.443 6.63431 109.626 6.82152 109.626 6.6878C109.626 5.80524 108.85 5.69827 99.1422 5.56454C90.5573 5.43082 92.5096 4.89594 97.9922 4.86919C106.069 4.84245 121.554 5.10989 121.768 4.78896C122.196 4.06686 121.072 3.61222 118.478 3.42501C114.413 3.13082 130.781 3.45175 142.628 3.87966C164.746 4.68198 168.436 5.59128 168.436 4.68198C168.49 3.42501 167.875 3.34477 149.074 2.24826Z" fill="black"/>
</svg>
