<svg width="22" height="32" viewBox="0 0 22 32" fill="none" xmlns="http://www.w3.org/2000/svg">
<path d="M19 13V8.71999C19.0429 6.55187 18.2253 4.45502 16.726 2.88827C15.2268 1.32152 13.1679 0.412451 11 0.359985C8.8321 0.412451 6.77324 1.32152 5.27396 2.88827C3.77468 4.45502 2.95705 6.55187 3 8.71999V13H0V30C0 30.5304 0.210714 31.0391 0.585786 31.4142C0.960859 31.7893 1.46957 32 2 32H20C20.5304 32 21.0391 31.7893 21.4142 31.4142C21.7893 31.0391 22 30.5304 22 30V13H19ZM12 23.23V26H10V23.14C9.51315 22.8895 9.12658 22.48 8.90445 21.9796C8.68232 21.4792 8.63797 20.9178 8.77878 20.3887C8.91958 19.8596 9.23707 19.3945 9.67855 19.0707C10.12 18.7469 10.659 18.5837 11.2059 18.6083C11.7529 18.633 12.275 18.8438 12.6856 19.206C13.0963 19.5682 13.3707 20.0599 13.4634 20.5995C13.5561 21.1391 13.4615 21.6942 13.1953 22.1727C12.9292 22.6512 12.5074 23.0242 12 23.23ZM17 13H5V8.71999C4.95689 7.08222 5.56376 5.49397 6.68801 4.30226C7.81227 3.11055 9.3625 2.41227 11 2.35999C12.6375 2.41227 14.1877 3.11055 15.312 4.30226C16.4362 5.49397 17.0431 7.08222 17 8.71999V13Z" fill="white"/>
</svg>
