<svg width="22" height="24" viewBox="0 0 22 24" fill="none" xmlns="http://www.w3.org/2000/svg">
<path d="M1 24C0.734784 24 0.48043 23.8946 0.292893 23.7071C0.105357 23.5196 0 23.2652 0 23V0.999997C2.9751e-05 0.826226 0.0453407 0.655462 0.131467 0.504537C0.217593 0.353611 0.341562 0.227734 0.491153 0.139311C0.640745 0.0508884 0.810796 0.00297269 0.984546 0.000287289C1.1583 -0.00239811 1.32975 0.0402395 1.482 0.123997L21.482 11.124C21.6388 11.2103 21.7695 11.3371 21.8606 11.4912C21.9517 11.6453 21.9997 11.821 21.9997 12C21.9997 12.179 21.9517 12.3547 21.8606 12.5088C21.7695 12.6629 21.6388 12.7897 21.482 12.876L1.482 23.876C1.33435 23.9573 1.16855 23.9999 1 24Z" fill="#B4DDC0"/>
</svg>
