<svg width="30" height="30" viewBox="0 0 30 30" fill="none" xmlns="http://www.w3.org/2000/svg">
<circle cx="15" cy="15" r="15" fill="#B4DDC0"/>
<path d="M9.33335 23.3334C9.15654 23.3334 8.98697 23.2631 8.86195 23.1381C8.73693 23.0131 8.66669 22.8435 8.66669 22.6667V8.00005C8.66671 7.8842 8.69691 7.77036 8.75433 7.66974C8.81175 7.56913 8.89439 7.48521 8.99412 7.42626C9.09385 7.36731 9.20722 7.33537 9.32305 7.33358C9.43888 7.33179 9.55319 7.36021 9.65469 7.41605L22.988 14.7494C23.0925 14.8069 23.1797 14.8915 23.2404 14.9942C23.3011 15.0969 23.3331 15.2141 23.3331 15.3334C23.3331 15.4527 23.3011 15.5698 23.2404 15.6726C23.1797 15.7753 23.0925 15.8598 22.988 15.9174L9.65469 23.2507C9.55625 23.3049 9.44572 23.3333 9.33335 23.3334Z" fill="white"/>
</svg>
