<svg width="39" height="39" viewBox="0 0 39 39" fill="none" xmlns="http://www.w3.org/2000/svg">
<path d="M39 19.5C39 14.9886 37.4357 10.6167 34.5737 7.12933C31.7117 3.64195 27.729 1.25482 23.3043 0.374687C18.8795 -0.505449 14.2865 0.175863 10.3078 2.30253C6.32904 4.42921 3.2108 7.86966 1.48435 12.0377C-0.242099 16.2057 -0.469935 20.8434 0.839663 25.1605C2.14926 29.4777 4.91526 33.2072 8.66638 35.7137C12.4175 38.2201 16.9216 39.3483 21.4113 38.9061C25.901 38.4639 30.0985 36.4786 33.2886 33.2886L30.1836 30.1836C27.7119 32.6553 24.4596 34.1935 20.9809 34.5361C17.5022 34.8787 14.0124 34.0045 11.106 32.0625C8.19956 30.1205 6.05643 27.2309 5.04173 23.8859C4.02704 20.5409 4.20357 16.9475 5.54125 13.7181C6.87892 10.4887 9.29497 7.82296 12.3777 6.17519C15.4605 4.52741 19.0192 3.99953 22.4476 4.68147C25.8759 5.36341 28.9618 7.21298 31.1793 9.91505C33.3968 12.6171 34.6088 16.0045 34.6088 19.5H39Z" fill="#E9E9E9"/>
<path d="M33.2886 33.2886C36.4786 30.0985 38.4639 25.901 38.9061 21.4113C39.3483 16.9216 38.2201 12.4175 35.7137 8.66638C33.2072 4.91527 29.4777 2.14926 25.1606 0.839664C20.8434 -0.469935 16.2057 -0.2421 12.0377 1.48435C7.86966 3.2108 4.42921 6.32904 2.30254 10.3078C0.175863 14.2865 -0.505449 18.8795 0.374687 23.3043C1.25482 27.729 3.64195 31.7117 7.12933 34.5737C10.6167 37.4357 14.9886 39 19.5 39V34.6088C16.0045 34.6088 12.6171 33.3968 9.91505 31.1793C7.21298 28.9618 5.36341 25.8759 4.68147 22.4476C3.99953 19.0192 4.52741 15.4605 6.17519 12.3777C7.82296 9.29497 10.4887 6.87892 13.7181 5.54125C16.9475 4.20357 20.5409 4.02704 23.8859 5.04174C27.2309 6.05643 30.1205 8.19956 32.0625 11.106C34.0046 14.0124 34.8787 17.5022 34.5361 20.9809C34.1935 24.4596 32.6553 27.7119 30.1836 30.1836L33.2886 33.2886Z" fill="#B4DDC0"/>
</svg>
