<svg width="20" height="15" viewBox="0 0 20 15" fill="none" xmlns="http://www.w3.org/2000/svg">
<rect width="20" height="15" fill="#E5E5E5"/>
<rect x="-31" y="-474" width="428" height="3288" rx="60" fill="white"/>
<path d="M5.68135 10.6485C4.96417 10.625 4.24542 10.661 3.53604 10.761C2.92667 10.8469 2.3251 10.9829 1.73917 11.1657C1.59698 11.2094 1.4376 11.2454 1.30323 11.3125C1.21729 11.3563 1.14698 11.4063 1.07042 11.311C0.964167 11.1829 1.03448 10.95 1.05167 10.8032C1.08604 10.5079 1.1251 10.2141 1.17042 9.92036C1.36729 8.61254 1.63135 7.31723 1.81104 6.0063C1.88917 5.42661 1.95323 4.84223 2.02823 4.26255C2.06573 3.96411 2.10792 3.66567 2.15635 3.36879C2.21573 3.00473 2.22823 2.74848 2.56885 2.52817C3.14854 2.15317 3.84385 1.98755 4.50792 1.82661C5.22354 1.65317 5.9376 1.50629 6.67823 1.53442C7.19698 1.55473 7.70167 1.69223 8.15948 1.93442C8.38135 2.05161 8.59385 2.18911 8.79542 2.34067C8.99542 2.48911 9.23917 2.64848 9.39854 2.83911C9.54073 3.00786 9.58604 3.16098 9.6001 3.33598C9.50167 5.57505 9.51729 11.1266 9.53448 11.5204C9.53604 11.5532 9.53917 11.586 9.54073 11.6188C9.53292 11.661 9.50948 11.6938 9.44073 11.6938C9.35792 11.6954 9.26729 11.6407 9.19542 11.6032C9.04698 11.525 8.89698 11.45 8.74698 11.3797C7.77667 10.9219 6.75479 10.6829 5.68135 10.6485ZM18.9298 11.3094C18.8517 11.4047 18.7829 11.3547 18.697 11.311C18.5642 11.2438 18.4048 11.2079 18.261 11.1641C17.6751 10.9813 17.0735 10.8469 16.4642 10.7594C15.7548 10.6594 15.0345 10.625 14.3173 10.6469C13.2454 10.6813 12.2235 10.9204 11.2517 11.3782C11.1017 11.45 10.9517 11.525 10.8032 11.6016C10.7314 11.6391 10.6407 11.6922 10.5564 11.6922C10.4876 11.6922 10.4642 11.6594 10.4564 11.6172C10.4579 11.5844 10.4626 11.5516 10.4626 11.5188C10.4798 11.125 10.497 5.57348 10.397 3.33442C10.411 3.15942 10.4564 3.00629 10.597 2.83754C10.7595 2.64692 11.0017 2.48598 11.2017 2.33911C11.4032 2.18911 11.6142 2.05005 11.8376 1.93286C12.297 1.69067 12.8001 1.55317 13.3189 1.53286C14.0595 1.50317 14.7735 1.65161 15.4892 1.82504C16.1532 1.98598 16.8485 2.15005 17.4298 2.52661C17.7704 2.74692 17.7829 3.00317 17.8423 3.36723C17.8907 3.66411 17.9329 3.96254 17.9704 4.26098C18.0439 4.84223 18.1079 5.42504 18.1876 6.00473C18.3673 7.31411 18.6329 8.61098 18.8282 9.91879C18.8704 10.2125 18.9126 10.5063 18.947 10.8016C18.9657 10.9485 19.036 11.1813 18.9298 11.3094Z" fill="white"/>
<path d="M19.8125 12.6906C19.8235 12.4718 19.9235 11.8609 19.9203 11.7422C19.9094 10.2203 18.9438 5.20466 18.7891 3.98278L18.7797 3.90778C18.7266 3.42809 18.7063 2.85778 18.5297 2.40466C18.3516 1.94841 17.775 1.78903 17.3594 1.62809C15.6391 0.971845 13.6969 0.418719 11.8719 0.996844C11.1594 1.22184 10.5172 1.62341 10.0016 2.25622C9.48752 1.62341 8.84377 1.22184 8.13283 0.996844C6.30783 0.418719 4.36565 0.971845 2.64533 1.62809C2.22971 1.78747 1.65002 1.94684 1.47346 2.40466C1.2969 2.85778 1.27658 3.42653 1.22346 3.90778L1.21408 3.98278C1.0594 5.20466 0.0953343 10.2203 0.0828343 11.7422C0.0797093 11.8625 0.181272 12.4718 0.192209 12.6906C0.207834 13.0062 0.170334 13.3234 0.185959 13.6375C0.154709 13.7468 0.182834 13.85 0.250022 13.9312C0.293772 14.0156 0.360959 14.0672 0.434397 14.0937C0.601584 14.2781 0.904709 14.1562 1.10315 14.0937C2.88127 13.5187 4.83596 13.5406 6.67033 13.7843C6.99533 13.8265 7.31877 13.8797 7.64065 13.9422C7.97502 14.0078 8.29221 14.1265 8.61252 14.2406C8.87658 14.3343 9.15315 14.4125 9.43127 14.4656C9.63127 14.5109 9.82658 14.5297 9.91565 14.5312C9.9469 14.5312 9.97502 14.5281 10.0047 14.5265C10.0344 14.5265 10.0641 14.5312 10.0938 14.5312C10.1828 14.5312 10.3781 14.5125 10.5781 14.4656C10.8563 14.4125 11.1328 14.3343 11.3969 14.2406C11.7172 14.1265 12.036 14.0078 12.3703 13.9422C12.6922 13.8797 13.0156 13.8265 13.3406 13.7843C15.1735 13.5406 17.1297 13.5187 18.9078 14.0937C19.1047 14.1578 19.4078 14.2781 19.575 14.0937C19.65 14.0672 19.7156 14.0156 19.7594 13.9312C19.8266 13.85 19.8547 13.7468 19.8235 13.6375C19.8344 13.3218 19.7969 13.0062 19.8125 12.6906ZM5.68127 10.6484C4.96408 10.625 4.24533 10.6609 3.53596 10.7609C2.92658 10.8468 2.32502 10.9828 1.73908 11.1656C1.5969 11.2093 1.43752 11.2453 1.30315 11.3125C1.21721 11.3562 1.1469 11.4062 1.07033 11.3109C0.964084 11.1828 1.0344 10.95 1.05158 10.8031C1.08596 10.5078 1.12502 10.214 1.17033 9.92028C1.36721 8.61247 1.63127 7.31716 1.81096 6.00622C1.88908 5.42653 1.95315 4.84216 2.02815 4.26247C2.06565 3.96403 2.10783 3.66559 2.15627 3.36872C2.21565 3.00466 2.22815 2.74841 2.56877 2.52809C3.14846 2.15309 3.84377 1.98747 4.50783 1.82653C5.22346 1.65309 5.93752 1.50622 6.67815 1.53434C7.1969 1.55466 7.70159 1.69216 8.1594 1.93434C8.38127 2.05153 8.59377 2.18903 8.79534 2.34059C8.99534 2.48903 9.23909 2.64841 9.39846 2.83903C9.54065 3.00778 9.58596 3.16091 9.60002 3.33591C9.50158 5.57497 9.51721 11.1265 9.5344 11.5203C9.53596 11.5531 9.53909 11.5859 9.54065 11.6187C9.53284 11.6609 9.5094 11.6937 9.44065 11.6937C9.35783 11.6953 9.26721 11.6406 9.19533 11.6031C9.0469 11.525 8.8969 11.45 8.7469 11.3797C7.77658 10.9218 6.75471 10.6828 5.68127 10.6484ZM18.9297 11.3093C18.8516 11.4047 18.7828 11.3547 18.6969 11.3109C18.5641 11.2437 18.4047 11.2078 18.261 11.164C17.675 10.9812 17.0735 10.8468 16.4641 10.7593C15.7547 10.6593 15.0344 10.625 14.3172 10.6468C13.2453 10.6812 12.2235 10.9203 11.2516 11.3781C11.1016 11.45 10.9516 11.525 10.8031 11.6015C10.7313 11.639 10.6406 11.6922 10.5563 11.6922C10.4875 11.6922 10.4641 11.6593 10.4563 11.6172C10.4578 11.5843 10.4625 11.5515 10.4625 11.5187C10.4797 11.125 10.4969 5.57341 10.3969 3.33434C10.411 3.15934 10.4563 3.00622 10.5969 2.83747C10.7594 2.64684 11.0016 2.48591 11.2016 2.33903C11.4031 2.18903 11.6141 2.04997 11.8375 1.93278C12.2969 1.69059 12.8 1.55309 13.3188 1.53278C14.0594 1.50309 14.7735 1.65153 15.4891 1.82497C16.1531 1.98591 16.8485 2.14997 17.4297 2.52653C17.7703 2.74684 17.7828 3.00309 17.8422 3.36716C17.8906 3.66403 17.9328 3.96247 17.9703 4.26091C18.0438 4.84216 18.1078 5.42497 18.1875 6.00466C18.3672 7.31403 18.6328 8.61091 18.8281 9.91872C18.8703 10.2125 18.9125 10.5062 18.9469 10.8015C18.9656 10.9484 19.036 11.1812 18.9297 11.3093V11.3093Z" fill="#8FA7AC"/>
<path d="M8.29216 3.28288C6.81247 2.58913 4.81872 2.55163 3.32966 3.26413C2.93591 3.45319 3.27966 4.0235 3.67028 3.84694C4.93747 3.26881 6.67497 3.35631 7.90466 3.94538C8.34841 4.15631 8.73747 3.49225 8.29216 3.28288ZM8.24528 5.111C6.67028 4.42038 4.64528 4.15944 3.05622 4.97819C2.71091 5.15631 3.01403 5.64381 3.35622 5.49069C4.81403 4.83913 6.56091 5.22194 7.9781 5.74694C8.34528 5.88444 8.60622 5.26881 8.24528 5.111ZM8.16247 6.93444C7.99528 6.79381 7.76247 6.72819 7.56091 6.65475C6.09841 6.12038 4.15622 6.0985 2.75153 6.81725C2.44216 6.97506 2.7031 7.42506 3.00778 7.33756C3.77341 7.12038 4.49372 7.00006 5.28903 6.99225C5.91247 6.986 6.4781 7.05163 7.07341 7.22975C7.2531 7.28288 7.42497 7.30319 7.59685 7.38444C7.72028 7.44225 7.87341 7.51569 8.00935 7.53288C8.30622 7.56881 8.36716 7.13288 8.19997 6.96725L8.16247 6.93444ZM8.00778 8.69538C6.31716 7.8985 4.42028 8.04538 2.70935 8.6485C2.35622 8.7735 2.52497 9.31725 2.88435 9.20475C3.68903 8.95163 4.35935 8.76256 5.21403 8.75163C6.03591 8.74225 6.9281 9.011 7.68122 9.30631C8.08591 9.46725 8.41872 8.88913 8.00778 8.69538ZM12.0953 3.94381C13.325 3.35475 15.0625 3.26881 16.3297 3.84538C16.7187 4.0235 17.064 3.45163 16.6703 3.26256C15.1828 2.55006 13.189 2.58756 11.7093 3.28131C11.2625 3.49225 11.65 4.15631 12.0953 3.94381ZM12.0234 5.74694C13.4406 5.22194 15.1875 4.83913 16.6453 5.49069C16.9875 5.64381 17.2906 5.15631 16.9453 4.97819C15.3547 4.15944 13.3297 4.42038 11.7562 5.111C11.3953 5.26881 11.6547 5.88444 12.0234 5.74694ZM11.9906 7.53444C12.1281 7.51725 12.2781 7.44381 12.4015 7.386C12.575 7.30475 12.7468 7.28444 12.9265 7.23131C13.5218 7.05475 14.0875 6.98913 14.7109 6.99381C15.5062 7.00006 16.2281 7.12038 16.9937 7.33913C17.2968 7.42663 17.5578 6.97506 17.25 6.81881C15.8453 6.10006 13.9015 6.12194 12.4406 6.65631C12.239 6.72975 12.0062 6.79381 11.8375 6.936L11.8 6.97038C11.6312 7.13288 11.6953 7.57038 11.9906 7.53444ZM17.2922 8.6485C15.5812 8.04538 13.6843 7.8985 11.9937 8.69538C11.5828 8.88913 11.9156 9.46725 12.3218 9.30631C13.0734 9.011 13.964 8.74225 14.7875 8.75163C15.6406 8.76256 16.3125 8.95163 17.1156 9.20475C17.4765 9.31881 17.6453 8.7735 17.2922 8.6485Z" fill="#8FA7AC"/>
</svg>
