<svg width="30" height="30" viewBox="0 0 30 30" fill="none" xmlns="http://www.w3.org/2000/svg">
<circle cx="15" cy="15" r="15" fill="#B4DDC0"/>
<path fill-rule="evenodd" clip-rule="evenodd" d="M20.9375 15C20.9379 16.2886 20.4959 17.5384 19.6853 18.5401C18.8747 19.5419 17.7448 20.235 16.4844 20.5035C15.224 20.772 13.9097 20.5995 12.7612 20.015C11.6127 19.4306 10.6998 18.4695 10.175 17.2925L8.43625 17.9987C9.12553 19.5781 10.3375 20.8719 11.8685 21.6628C13.3995 22.4536 15.1561 22.6933 16.843 22.3414C18.5298 21.9895 20.0441 21.0676 21.1313 19.7307C22.2184 18.3937 22.8121 16.7232 22.8125 15C22.8126 13.4346 22.3229 11.9085 21.412 10.6355C20.5012 9.36244 19.2148 8.4063 17.7333 7.90106C16.2517 7.39581 14.6492 7.36679 13.1503 7.81806C11.6515 8.26932 10.3313 9.17826 9.375 10.4175V8.12498H7.5V13.125L8.4375 14.0625H12.8125V12.1875H10.44C11.0589 11.1146 12.0146 10.2759 13.1588 9.8017C14.303 9.32746 15.5718 9.24415 16.7682 9.56469C17.9646 9.88524 19.0218 10.5917 19.7757 11.5745C20.5295 12.5573 20.9379 13.7614 20.9375 15V15Z" fill="white"/>
</svg>
