<svg width="17" height="17" viewBox="0 0 17 17" fill="none" xmlns="http://www.w3.org/2000/svg">
<path d="M14.15 2.85C13.4099 2.10485 12.5296 1.51356 11.5599 1.11023C10.5902 0.706901 9.55025 0.499506 8.50001 0.500001C4.08001 0.500001 0.51001 4.08 0.51001 8.5C0.51001 12.92 4.08001 16.5 8.50001 16.5C12.23 16.5 15.34 13.95 16.23 10.5H14.15C13.7381 11.6695 12.9734 12.6824 11.9614 13.3988C10.9494 14.1153 9.73995 14.5 8.50001 14.5C5.19001 14.5 2.50001 11.81 2.50001 8.5C2.50001 5.19 5.19001 2.5 8.50001 2.5C10.16 2.5 11.64 3.19 12.72 4.28L9.50001 7.5H16.5V0.500001L14.15 2.85Z" fill="white"/>
</svg>
