<svg width="32" height="30" viewBox="0 0 32 30" fill="none" xmlns="http://www.w3.org/2000/svg">
<path d="M22.9351 13.7414C22.8874 12.6604 22.5803 11.5879 22.0123 10.6187L17.0021 2.06791C16.6201 1.41572 16.3562 0.717115 16.2096 0.000465393L16.0003 0.357788C14.7602 2.47412 14.7601 5.08163 16.0002 7.19812L20.0084 14.0388C21.2484 16.1553 21.2484 18.7629 20.0084 20.8794L19.799 21.2368C19.6523 20.5201 19.3884 19.8214 19.0064 19.1693L15.3369 12.9068L12.9941 8.90824C12.6121 8.25621 12.3482 7.55745 12.2015 6.84095L11.9921 7.19827C10.7563 9.30767 10.7524 11.9045 11.98 14.0172L11.9796 14.0173L16.0003 20.8794C17.2403 22.9957 17.2403 25.6034 16.0003 27.7199L15.7909 28.0772C15.6442 27.3607 15.3803 26.662 14.9983 26.0099L9.98814 17.4591C9.31618 16.3123 9.00916 15.0213 9.06534 13.7424C3.70188 15.1231 0 18.0549 0 21.4494C0 26.1719 7.16356 30 16.0003 30C24.8369 30 32.0005 26.1719 32.0005 21.4494C32.0005 18.0547 28.2989 15.1221 22.9351 13.7414Z" fill="#EC0000"/>
</svg>
