<svg width="15" height="15" viewBox="0 0 15 15" fill="none" xmlns="http://www.w3.org/2000/svg">
<path d="M14.3954 13.2713L11.7038 10.5875C12.5722 9.48111 13.0434 8.11485 13.0417 6.70834C13.0417 5.45572 12.6702 4.23124 11.9743 3.18972C11.2784 2.14821 10.2893 1.33645 9.132 0.857099C7.97473 0.377744 6.70131 0.252323 5.47276 0.496696C4.24422 0.741069 3.11573 1.34426 2.22999 2.22999C1.34426 3.11573 0.741069 4.24422 0.496696 5.47276C0.252323 6.70131 0.377744 7.97473 0.857099 9.132C1.33645 10.2893 2.14821 11.2784 3.18972 11.9743C4.23124 12.6702 5.45572 13.0417 6.70834 13.0417C8.11485 13.0434 9.48111 12.5722 10.5875 11.7038L13.2713 14.3954C13.3448 14.4696 13.4324 14.5285 13.5289 14.5687C13.6254 14.6089 13.7288 14.6296 13.8333 14.6296C13.9378 14.6296 14.0413 14.6089 14.1378 14.5687C14.2343 14.5285 14.3218 14.4696 14.3954 14.3954C14.4696 14.3218 14.5285 14.2343 14.5687 14.1378C14.6089 14.0413 14.6296 13.9378 14.6296 13.8333C14.6296 13.7288 14.6089 13.6254 14.5687 13.5289C14.5285 13.4324 14.4696 13.3448 14.3954 13.2713ZM1.95834 6.70834C1.95834 5.76887 2.23692 4.85051 2.75886 4.06938C3.28079 3.28824 4.02264 2.67942 4.89059 2.31991C5.75854 1.96039 6.7136 1.86633 7.63502 2.04961C8.55643 2.23289 9.40279 2.68528 10.0671 3.34958C10.7314 4.01388 11.1838 4.86025 11.3671 5.78166C11.5503 6.70307 11.4563 7.65813 11.0968 8.52608C10.7372 9.39403 10.1284 10.1359 9.34729 10.6578C8.56616 11.1798 7.6478 11.4583 6.70834 11.4583C5.44856 11.4583 4.24038 10.9579 3.34958 10.0671C2.45878 9.1763 1.95834 7.96811 1.95834 6.70834Z" fill="#3B5165"/>
</svg>
