<svg width="19" height="18" viewBox="0 0 19 18" fill="none" xmlns="http://www.w3.org/2000/svg">
<path d="M8.43464 0.467971C8.55626 0.355878 8.71606 0.296334 8.88016 0.301968C9.04426 0.307602 9.19974 0.377971 9.31363 0.498149C9.42752 0.618328 9.49086 0.778862 9.49021 0.945701C9.48956 1.11254 9.42498 1.27256 9.31015 1.39182L2.34396 8.20092H18.1309C18.2984 8.20092 18.459 8.26851 18.5774 8.38883C18.6958 8.50915 18.7623 8.67233 18.7623 8.84248C18.7623 9.01263 18.6958 9.17582 18.5774 9.29613C18.459 9.41645 18.2984 9.48404 18.1309 9.48404H2.3448L9.31015 16.2923C9.42498 16.4115 9.48956 16.5716 9.49021 16.7384C9.49086 16.9052 9.42752 17.0658 9.31363 17.186C9.19974 17.3061 9.04426 17.3765 8.88016 17.3821C8.71606 17.3878 8.55626 17.3282 8.43464 17.2161L0.497807 9.45838C0.416202 9.37857 0.351285 9.28285 0.306943 9.17695C0.262601 9.07105 0.239746 8.95714 0.239746 8.84205C0.239746 8.72696 0.262601 8.61306 0.306943 8.50716C0.351285 8.40126 0.416202 8.30554 0.497807 8.22573L8.43464 0.467116V0.467971Z" fill="white"/>
</svg>
