<svg width="12" height="9" viewBox="0 0 12 9" fill="none" xmlns="http://www.w3.org/2000/svg">
<path d="M7.1684 0.208252H11.25C11.3929 0.208271 11.5308 0.260726 11.6375 0.355669C11.7443 0.450612 11.8125 0.581439 11.8292 0.723335L11.8333 0.791585V4.87492C11.8345 5.02451 11.7782 5.16883 11.676 5.27807C11.5738 5.3873 11.4335 5.4531 11.2842 5.46186C11.1348 5.47062 10.9878 5.42168 10.8736 5.32515C10.7593 5.22861 10.6865 5.09187 10.6702 4.94317L10.6667 4.87492L10.6661 2.19975L6.4124 6.454C6.31203 6.55453 6.17843 6.61497 6.03666 6.62399C5.89489 6.63301 5.75471 6.58999 5.6424 6.503L5.58757 6.45459L4.24824 5.11759L1.16357 8.20342C1.05859 8.30804 0.917733 8.36878 0.769596 8.3733C0.621459 8.37783 0.477154 8.32579 0.365991 8.22777C0.254828 8.12975 0.185142 7.9931 0.171087 7.84556C0.157033 7.69802 0.199663 7.55066 0.29032 7.43342L0.338737 7.378L3.83524 3.88034C3.93561 3.77981 4.06921 3.71937 4.21098 3.71035C4.35275 3.70133 4.49293 3.74435 4.60524 3.83134L4.66007 3.87975L5.9994 5.21675L9.84065 1.37492H7.1684C7.02553 1.3749 6.88762 1.32244 6.78085 1.2275C6.67408 1.13256 6.60587 1.00173 6.58915 0.859835L6.58507 0.791585C6.58509 0.648708 6.63754 0.510805 6.73249 0.404035C6.82743 0.297265 6.95826 0.229052 7.10015 0.212335L7.1684 0.208252H11.25H7.1684Z" fill="#B1B8CF"/>
</svg>
