<svg width="21" height="24" viewBox="0 0 21 24" fill="none" xmlns="http://www.w3.org/2000/svg">
<path d="M9.00001 4.49994C9.00014 5.4697 8.687 6.41356 8.10722 7.19092C7.52744 7.96829 6.71205 8.53756 5.78251 8.81394C6.04951 9.14844 6.40651 9.53844 6.86251 9.92994C7.95151 10.8629 9.61351 11.8079 12 11.9744C12.0075 10.8477 12.4374 9.76478 13.2048 8.93971C13.9722 8.11465 15.0212 7.60748 16.1444 7.51847C17.2676 7.42945 18.3834 7.76506 19.2712 8.45895C20.1589 9.15285 20.754 10.1545 20.9389 11.266C21.1238 12.3775 20.885 13.5179 20.2697 14.4618C19.6543 15.4058 18.7073 16.0845 17.6157 16.3639C16.5241 16.6433 15.3675 16.503 14.3743 15.9707C13.3812 15.4385 12.6239 14.5531 12.252 13.4894C9.31201 13.3724 7.23901 12.2279 5.88751 11.0699C5.66636 10.8804 5.45365 10.6812 5.25001 10.4729V15.0629C6.36256 15.251 7.36386 15.8501 8.05549 16.7416C8.74712 17.6331 9.0786 18.7519 8.98425 19.8763C8.88989 21.0007 8.37658 22.0486 7.54604 22.8124C6.7155 23.5761 5.62834 24 4.50001 24C3.37168 24 2.28452 23.5761 1.45398 22.8124C0.623441 22.0486 0.110129 21.0007 0.0157715 19.8763C-0.0785865 18.7519 0.252895 17.6331 0.944525 16.7416C1.63616 15.8501 2.63746 15.251 3.75001 15.0629V8.93694C2.90405 8.79395 2.1166 8.4121 1.48047 7.83641C0.844341 7.26071 0.386042 6.51516 0.159589 5.68763C-0.0668642 4.8601 -0.0520311 3.98508 0.20234 3.1657C0.45671 2.34632 0.940016 1.61673 1.59529 1.06293C2.25057 0.509126 3.05051 0.154188 3.90083 0.0399501C4.75114 -0.0742881 5.6164 0.0569346 6.39461 0.418152C7.17281 0.77937 7.83154 1.35553 8.29316 2.07872C8.75477 2.80191 9.00002 3.64198 9.00001 4.49994ZM4.51351 7.49994C5.30916 7.49636 6.0708 7.17686 6.63087 6.61171C7.19095 6.04657 7.50359 5.28209 7.50001 4.48644C7.49643 3.69079 7.17692 2.92915 6.61178 2.36907C6.04664 1.809 5.28216 1.49636 4.48651 1.49994C4.09254 1.50171 3.70278 1.58107 3.33949 1.73347C2.97619 1.88587 2.64646 2.10834 2.36914 2.38817C1.80906 2.95331 1.49643 3.71779 1.50001 4.51344C1.50359 5.30909 1.82309 6.07073 2.38823 6.63081C2.95337 7.19088 3.71786 7.50352 4.51351 7.49994ZM19.5 11.9999C19.5 11.2043 19.1839 10.4412 18.6213 9.87862C18.0587 9.31601 17.2957 8.99994 16.5 8.99994C15.7044 8.99994 14.9413 9.31601 14.3787 9.87862C13.8161 10.4412 13.5 11.2043 13.5 11.9999C13.5 12.7956 13.8161 13.5587 14.3787 14.1213C14.9413 14.6839 15.7044 14.9999 16.5 14.9999C17.2957 14.9999 18.0587 14.6839 18.6213 14.1213C19.1839 13.5587 19.5 12.7956 19.5 11.9999ZM4.50001 22.4999C5.29566 22.4999 6.05872 22.1839 6.62133 21.6213C7.18394 21.0587 7.50001 20.2956 7.50001 19.4999C7.50001 18.7043 7.18394 17.9412 6.62133 17.3786C6.05872 16.816 5.29566 16.4999 4.50001 16.4999C3.70436 16.4999 2.9413 16.816 2.37869 17.3786C1.81608 17.9412 1.50001 18.7043 1.50001 19.4999C1.50001 20.2956 1.81608 21.0587 2.37869 21.6213C2.9413 22.1839 3.70436 22.4999 4.50001 22.4999Z" fill="#C6C6C6"/>
</svg>
