<svg width="21" height="28" viewBox="0 0 21 28" fill="none" xmlns="http://www.w3.org/2000/svg">
<path d="M20.1667 5.66663H4.21667C4.00401 5.66361 3.79415 5.61756 3.59977 5.53124C3.40539 5.44492 3.23051 5.32012 3.08566 5.16438C2.94082 5.00864 2.82902 4.82517 2.75701 4.62504C2.685 4.42492 2.65427 4.21228 2.66667 3.99996C2.66563 3.57742 2.82513 3.17026 3.11288 2.86085C3.40063 2.55144 3.79517 2.36287 4.21667 2.33329H20.1667C20.3877 2.33329 20.5996 2.2455 20.7559 2.08921C20.9122 1.93293 21 1.72097 21 1.49996C21 1.27895 20.9122 1.06698 20.7559 0.910704C20.5996 0.754423 20.3877 0.666626 20.1667 0.666626H4.21667C3.35299 0.696873 2.53482 1.06137 1.93471 1.68324C1.3346 2.30512 0.999474 3.13575 1 3.99996C0.991942 4.13595 0.991942 4.2723 1 4.40829C0.991975 4.47472 0.991975 4.54187 1 4.60829V24C0.999474 24.8642 1.3346 25.6948 1.93471 26.3167C2.53482 26.9385 3.35299 27.303 4.21667 27.3333H20.1667C20.3877 27.3333 20.5996 27.2455 20.7559 27.0892C20.9122 26.9329 21 26.721 21 26.5V6.55829C21.0005 6.33158 20.9146 6.11319 20.7598 5.94755C20.605 5.78191 20.3929 5.68146 20.1667 5.66663ZM19.3333 25.6666H4.21667C3.79517 25.637 3.40063 25.4485 3.11288 25.1391C2.82513 24.8297 2.66563 24.4225 2.66667 24V6.95829C3.1405 7.21968 3.67576 7.34918 4.21667 7.33329H19.3333V25.6666Z" fill="#C6C6C6"/>
</svg>
